<!DOCTYPE svg PUBLIC "-//W3C//DTD SVG 20010904//EN" "http://www.w3.org/TR/2001/REC-SVG-20010904/DTD/svg10.dtd">
<svg version="1.0" xmlns="http://www.w3.org/2000/svg" width="56px" height="56px" viewBox="0 0 560 560" preserveAspectRatio="xMidYMid meet">
<g id="layer101" fill="#313131" stroke="none">
 <path d="M32 475 c3 -76 1 -85 -14 -85 -14 0 -18 -8 -18 -32 0 -31 5 -36 103 -89 l102 -57 95 51 c119 63 120 64 120 98 0 22 -5 29 -20 29 -18 0 -20 7 -20 85 l0 85 -176 0 -175 0 3 -85z m318 -18 l0 -73 -73 -39 -72 -38 -68 39 -67 38 0 73 0 73 140 0 140 0 0 -73z m-230 -142 c44 -25 83 -45 88 -45 5 0 46 21 91 46 45 26 84 44 87 41 3 -3 -36 -27 -87 -55 l-92 -50 -67 37 c-36 20 -77 44 -91 53 -46 32 -8 18 71 -27z"/>
 <path d="M390 495 c0 -11 12 -15 50 -15 l51 0 -3 -151 -3 -151 -78 -45 -78 -44 -84 46 c-60 33 -82 50 -78 61 5 15 -13 44 -28 44 -5 0 -9 -11 -9 -24 0 -15 -7 -26 -20 -29 -14 -4 -20 -13 -20 -34 0 -25 10 -34 115 -90 63 -35 118 -63 123 -63 5 0 59 27 120 61 109 59 112 62 112 95 0 26 -4 34 -17 34 -17 0 -18 13 -15 160 l3 160 -71 0 c-56 0 -70 -3 -70 -15z m-154 -395 l93 -51 89 51 c50 27 96 50 103 50 14 0 -24 -24 -132 -81 l-61 -33 -82 44 c-89 48 -125 70 -112 70 5 0 50 -23 102 -50z"/>
 </g>

</svg>