<!DOCTYPE svg PUBLIC "-//W3C//DTD SVG 20010904//EN" "http://www.w3.org/TR/2001/REC-SVG-20010904/DTD/svg10.dtd">
<svg version="1.0" xmlns="http://www.w3.org/2000/svg" width="26px" height="22px" viewBox="0 0 260 220" preserveAspectRatio="xMidYMid meet">
<g id="layer101" fill="#8a8a8a" stroke="none">
 <path d="M0 110 l0 -110 130 0 130 0 0 110 0 110 -130 0 -130 0 0 -110z"/>
 </g>
<g id="layer102" fill="#ababab" stroke="none">
 <path d="M0 110 l0 -110 130 0 130 0 0 110 0 110 -130 0 -130 0 0 -110z m70 70 c0 -25 -4 -30 -25 -30 -21 0 -25 5 -25 30 0 25 4 30 25 30 21 0 25 -5 25 -30z m178 3 c-3 -28 -4 -28 -80 -31 l-78 -3 0 31 0 30 81 0 80 0 -3 -27z m-178 -73 c0 -25 -4 -30 -25 -30 -21 0 -25 5 -25 30 0 25 4 30 25 30 21 0 25 -5 25 -30z m175 0 c0 -24 -2 -25 -77 -28 l-78 -3 0 31 0 31 78 -3 c75 -3 77 -4 77 -28z m-175 -75 c0 -20 -5 -25 -25 -25 -20 0 -25 5 -25 25 0 20 5 25 25 25 20 0 25 -5 25 -25z m180 0 c0 -25 -1 -25 -80 -25 -79 0 -80 0 -80 25 0 25 1 25 80 25 79 0 80 0 80 -25z"/>
 </g>
<g id="layer103" fill="#c4c4c4" stroke="none">
 <path d="M0 110 l0 -110 130 0 130 0 0 110 0 110 -130 0 -130 0 0 -110z m70 70 c0 -25 -4 -30 -25 -30 -14 0 -28 7 -31 15 -10 25 4 45 31 45 21 0 25 -5 25 -30z m180 0 l0 -30 -85 0 -85 0 0 30 0 30 85 0 85 0 0 -30z m-180 -70 c0 -25 -4 -30 -25 -30 -14 0 -28 7 -31 15 -10 25 4 45 31 45 21 0 25 -5 25 -30z m180 0 l0 -30 -85 0 -85 0 0 30 0 30 85 0 85 0 0 -30z m-180 -70 c0 -25 -4 -30 -25 -30 -27 0 -41 20 -31 45 3 8 17 15 31 15 21 0 25 -5 25 -30z m180 0 l0 -30 -85 0 c-82 0 -85 1 -85 23 0 13 3 27 7 30 3 4 42 7 85 7 l78 0 0 -30z"/>
 </g>
<g id="layer104" fill="#f4f4f4" stroke="none">
 <path d="M0 110 l0 -110 130 0 130 0 0 110 0 110 -130 0 -130 0 0 -110z m70 70 c0 -27 -3 -30 -30 -30 -27 0 -30 3 -30 30 0 27 3 30 30 30 27 0 30 -3 30 -30z m180 0 l0 -30 -85 0 -85 0 0 30 0 30 85 0 85 0 0 -30z m-180 -70 c0 -27 -3 -30 -30 -30 -27 0 -30 3 -30 30 0 27 3 30 30 30 27 0 30 -3 30 -30z m180 0 l0 -30 -85 0 -85 0 0 30 0 30 85 0 85 0 0 -30z m-180 -70 c0 -27 -3 -30 -30 -30 -27 0 -30 3 -30 30 0 27 3 30 30 30 27 0 30 -3 30 -30z m180 0 l0 -30 -85 0 -85 0 0 30 0 30 85 0 85 0 0 -30z"/>
 </g>

</svg>