<!DOCTYPE svg PUBLIC "-//W3C//DTD SVG 20010904//EN" "http://www.w3.org/TR/2001/REC-SVG-20010904/DTD/svg10.dtd">
<svg version="1.0" xmlns="http://www.w3.org/2000/svg" width="44px" height="56px" viewBox="0 0 440 560" preserveAspectRatio="xMidYMid meet">
<g id="layer101" fill="#313131" stroke="none">
 <path d="M0 280 l0 -280 143 0 143 0 77 77 77 77 0 203 0 203 -220 0 -220 0 0 -280z m410 75 l0 -175 -75 0 -75 0 0 -75 0 -75 -115 0 -115 0 0 250 0 250 190 0 190 0 0 -175z m-47 -230 c-12 -8 -31 -27 -42 -41 l-21 -27 0 42 0 41 42 0 c41 0 42 -1 21 -15z"/>
 <path d="M113 438 c0 -29 3 -61 8 -70 12 -23 47 -32 64 -18 16 13 20 59 8 76 -5 5 3 -1 16 -15 19 -20 26 -23 42 -13 11 7 20 8 24 2 9 -14 55 -12 55 3 0 14 -77 53 -87 44 -3 -4 -14 0 -24 9 -9 8 -29 16 -43 18 -14 1 -29 6 -33 9 -19 19 -29 3 -30 -45z"/>
 <path d="M80 305 c0 -13 23 -15 145 -15 122 0 145 2 145 15 0 13 -23 15 -145 15 -122 0 -145 -2 -145 -15z"/>
 <path d="M80 255 c0 -13 23 -15 145 -15 122 0 145 2 145 15 0 13 -23 15 -145 15 -122 0 -145 -2 -145 -15z"/>
 <path d="M80 210 c0 -19 7 -20 145 -20 138 0 145 1 145 20 0 19 -7 20 -145 20 -138 0 -145 -1 -145 -20z"/>
 <path d="M80 160 c0 -18 7 -20 85 -20 78 0 85 2 85 20 0 18 -7 20 -85 20 -78 0 -85 -2 -85 -20z"/>
 <path d="M80 110 c0 -18 7 -20 85 -20 78 0 85 2 85 20 0 18 -7 20 -85 20 -78 0 -85 -2 -85 -20z"/>
 </g>

</svg>