<!DOCTYPE svg PUBLIC "-//W3C//DTD SVG 20010904//EN" "http://www.w3.org/TR/2001/REC-SVG-20010904/DTD/svg10.dtd">
<svg version="1.0" xmlns="http://www.w3.org/2000/svg" width="50px" height="56px" viewBox="0 0 500 560" preserveAspectRatio="xMidYMid meet">
<g id="layer101" fill="#313131" stroke="none">
 <path d="M180 545 c0 -12 -17 -15 -90 -15 l-90 0 0 -265 0 -265 138 0 138 0 67 68 67 68 0 97 0 97 45 0 45 0 0 115 0 115 -160 0 c-136 0 -160 -2 -160 -15z m290 -81 l0 -66 -65 36 -64 37 -38 -24 c-88 -55 -83 -56 -83 18 l0 65 125 0 125 0 0 -66z m-290 -54 l0 -80 98 0 97 0 0 -85 0 -85 -67 0 -68 0 0 -65 0 -65 -105 0 -105 0 0 230 0 230 75 0 75 0 0 -80z m261 -34 c32 -15 28 -15 -94 -16 l-129 0 64 34 63 34 31 -19 c17 -10 46 -25 65 -33z m-101 -259 c0 -2 -13 -16 -30 -32 l-30 -29 0 32 c0 29 3 32 30 32 17 0 30 -1 30 -3z"/>
 <path d="M90 370 c0 -17 7 -20 40 -20 33 0 40 3 40 20 0 17 -7 20 -40 20 -33 0 -40 -3 -40 -20z"/>
 <path d="M90 295 c0 -12 16 -15 80 -15 64 0 80 3 80 15 0 12 -16 15 -80 15 -64 0 -80 -3 -80 -15z"/>
 <path d="M90 225 c0 -12 19 -15 110 -15 91 0 110 3 110 15 0 12 -19 15 -110 15 -91 0 -110 -3 -110 -15z"/>
 </g>

</svg>