<!DOCTYPE svg PUBLIC "-//W3C//DTD SVG 20010904//EN" "http://www.w3.org/TR/2001/REC-SVG-20010904/DTD/svg10.dtd">
<svg version="1.0" xmlns="http://www.w3.org/2000/svg" width="51px" height="57px" viewBox="0 0 510 570" preserveAspectRatio="xMidYMid meet">
<g id="layer101" fill="#313131" stroke="none">
 <path d="M42 558 c-6 -6 -12 -17 -12 -24 0 -6 -7 -17 -15 -24 -25 -21 -17 -59 26 -121 45 -63 68 -72 101 -42 17 15 20 15 28 3 6 -8 10 -24 10 -36 0 -11 26 -58 58 -104 45 -67 63 -86 86 -90 26 -4 27 -6 13 -19 -38 -31 1 -101 55 -101 27 0 68 40 68 65 0 23 -41 65 -63 65 -20 1 -20 2 -5 11 10 5 23 30 29 55 8 32 22 53 51 75 30 25 38 37 36 58 -4 36 -37 39 -77 6 -28 -25 -31 -25 -31 -7 0 11 18 60 40 111 34 75 39 94 30 111 -8 15 -19 20 -38 18 -20 -2 -34 -17 -60 -61 l-33 -58 -45 61 c-33 45 -50 60 -69 60 -42 0 -44 -41 -3 -103 37 -55 56 -107 55 -146 l-1 -23 -21 26 c-11 14 -26 26 -32 26 -19 0 -111 144 -115 181 -2 28 -7 35 -28 37 -14 2 -31 -3 -38 -10z m358 -120 l-41 -93 11 -77 c15 -93 10 -108 -30 -108 -26 0 -36 9 -80 76 -28 42 -49 78 -47 81 3 2 19 -19 36 -46 60 -92 86 -93 69 0 l-11 55 63 107 c34 59 65 106 67 103 3 -2 -14 -46 -37 -98z m-122 36 c18 -23 32 -52 31 -65 l0 -24 -9 23 c-6 13 -23 43 -40 67 -16 24 -30 47 -30 51 0 9 5 3 48 -52z m-169 -35 c19 -27 32 -51 30 -52 -2 -1 -11 -8 -20 -15 -13 -10 -21 -4 -53 43 -21 30 -35 59 -31 65 14 22 42 7 74 -41z m355 -130 c-10 -11 -28 -25 -39 -31 -11 -6 -4 4 15 20 41 36 51 41 24 11z m-50 -233 c9 -13 7 -20 -8 -31 -32 -24 -62 15 -34 43 15 15 28 11 42 -12z"/>
 </g>

</svg>