<!DOCTYPE svg PUBLIC "-//W3C//DTD SVG 20010904//EN" "http://www.w3.org/TR/2001/REC-SVG-20010904/DTD/svg10.dtd">
<svg version="1.0" xmlns="http://www.w3.org/2000/svg" width="59px" height="59px" viewBox="0 0 590 590" preserveAspectRatio="xMidYMid meet">
<g id="layer101" fill="#313131" stroke="none">
 <path d="M200 542 c-109 -46 -115 -49 -118 -79 -3 -25 1 -33 19 -38 13 -4 29 -14 37 -21 17 -18 39 -18 92 1 23 8 61 15 84 15 40 0 40 -1 16 -13 -20 -10 -26 -21 -28 -57 -2 -25 -9 -50 -16 -55 -8 -6 -15 -19 -18 -30 -3 -18 -10 -20 -81 -16 -64 3 -83 0 -112 -18 -20 -12 -45 -21 -56 -21 -12 0 -19 -7 -19 -20 0 -26 26 -26 70 2 30 18 51 21 148 22 61 1 112 -2 112 -6 0 -14 -60 -38 -95 -38 -48 0 -75 -16 -75 -44 0 -35 24 -49 73 -43 35 5 50 14 90 58 54 60 58 59 20 -6 -21 -36 -42 -54 -86 -76 l-59 -30 -73 30 c-88 37 -125 40 -125 11 0 -15 7 -20 28 -20 16 0 56 -11 90 -25 78 -32 90 -31 161 4 49 25 64 40 96 93 48 79 59 150 26 167 -16 9 -21 21 -21 54 0 24 -6 49 -12 56 -11 11 -10 13 3 8 83 -29 93 -29 152 -7 52 20 78 42 65 56 -3 2 -33 -6 -66 -18 -60 -21 -63 -21 -115 -5 -30 9 -67 17 -83 18 -16 0 -38 4 -49 9 -18 7 -18 8 8 15 16 4 59 4 98 1 57 -6 69 -5 69 7 0 8 -10 17 -22 21 -36 9 -176 7 -183 -3 -3 -5 -29 -17 -58 -27 -28 -9 -58 -19 -64 -22 -7 -2 -13 0 -13 6 0 6 54 32 119 58 l120 47 59 -21 c69 -26 110 -28 138 -8 28 21 6 41 -28 25 -21 -9 -36 -7 -82 10 -31 11 -71 21 -89 21 -18 0 -84 -22 -147 -48z m10 -107 c-46 -18 -64 -17 -25 0 17 8 37 14 45 14 8 0 -1 -7 -20 -14z m140 -114 c0 -40 4 -51 19 -56 14 -4 17 -12 13 -27 l-5 -22 -9 23 c-7 19 -13 22 -39 16 -22 -5 -29 -4 -25 4 4 6 14 11 23 11 12 0 14 10 11 50 -1 28 0 50 5 50 4 0 7 -22 7 -49z m-70 -188 c0 -1 -16 -7 -37 -12 -36 -10 -65 -5 -44 8 10 6 81 10 81 4z"/>
 </g>

</svg>